<svg width="147" height="41" viewBox="0 0 147 41" fill="none" xmlns="http://www.w3.org/2000/svg">
<path d="M66.4208 19.6853H60.8317L60.8014 17.3376H65.8755C66.7136 17.3376 67.4457 17.1962 68.0717 16.9135C68.6978 16.6307 69.1825 16.2268 69.5258 15.7018C69.8792 15.1666 70.0559 14.5304 70.0559 13.7933C70.0559 12.9855 69.8994 12.3291 69.5864 11.8243C69.2834 11.3093 68.8139 10.9357 68.1777 10.7034C67.5517 10.4611 66.754 10.3399 65.7846 10.3399H61.483V30H58.5597V7.94678H65.7846C66.9155 7.94678 67.9253 8.0629 68.8139 8.29515C69.7025 8.51729 70.4548 8.87071 71.0707 9.3554C71.6968 9.82999 72.1714 10.4358 72.4945 11.173C72.8176 11.9101 72.9792 12.7936 72.9792 13.8236C72.9792 14.7324 72.7469 15.5553 72.2824 16.2925C71.8179 17.0195 71.1717 17.6153 70.3437 18.0797C69.5258 18.5442 68.5665 18.8421 67.4659 18.9734L66.4208 19.6853ZM66.2844 30H59.6806L61.3315 27.622H66.2844C67.2134 27.622 68.001 27.4604 68.6473 27.1373C69.3036 26.8142 69.8035 26.3598 70.1468 25.7741C70.4901 25.1784 70.6618 24.4766 70.6618 23.6688C70.6618 22.8509 70.5153 22.144 70.2225 21.5483C69.9297 20.9525 69.4702 20.4931 68.8442 20.17C68.2181 19.8468 67.4103 19.6853 66.4208 19.6853H62.2555L62.2858 17.3376H67.9808L68.6018 18.1858C69.6621 18.2767 70.5608 18.5796 71.2979 19.0946C72.035 19.5994 72.5955 20.2457 72.9792 21.0333C73.373 21.8209 73.5699 22.6893 73.5699 23.6385C73.5699 25.0118 73.2669 26.173 72.6611 27.1222C72.0653 28.0613 71.2222 28.7782 70.1316 29.273C69.0411 29.7577 67.7587 30 66.2844 30ZM76.7203 21.9875V21.6392C76.7203 20.4577 76.892 19.3621 77.2353 18.3524C77.5786 17.3325 78.0734 16.449 78.7197 15.7018C79.3659 14.9444 80.1485 14.3588 81.0674 13.9448C81.9862 13.5207 83.0162 13.3086 84.1572 13.3086C85.3084 13.3086 86.3434 13.5207 87.2623 13.9448C88.1912 14.3588 88.9789 14.9444 89.6251 15.7018C90.2815 16.449 90.7813 17.3325 91.1246 18.3524C91.4679 19.3621 91.6396 20.4577 91.6396 21.6392V21.9875C91.6396 23.169 91.4679 24.2645 91.1246 25.2743C90.7813 26.2841 90.2815 27.1676 89.6251 27.9249C88.9789 28.6722 88.1963 29.2578 87.2774 29.6819C86.3686 30.0959 85.3387 30.3029 84.1875 30.3029C83.0364 30.3029 82.0014 30.0959 81.0825 29.6819C80.1636 29.2578 79.376 28.6722 78.7197 27.9249C78.0734 27.1676 77.5786 26.2841 77.2353 25.2743C76.892 24.2645 76.7203 23.169 76.7203 21.9875ZM79.5224 21.6392V21.9875C79.5224 22.8054 79.6184 23.5779 79.8102 24.3049C80.0021 25.0219 80.2898 25.658 80.6736 26.2134C81.0674 26.7688 81.5571 27.208 82.1428 27.5311C82.7284 27.8442 83.41 28.0007 84.1875 28.0007C84.955 28.0007 85.6264 27.8442 86.202 27.5311C86.7877 27.208 87.2724 26.7688 87.6561 26.2134C88.0398 25.658 88.3276 25.0219 88.5194 24.3049C88.7214 23.5779 88.8223 22.8054 88.8223 21.9875V21.6392C88.8223 20.8314 88.7214 20.069 88.5194 19.3521C88.3276 18.625 88.0347 17.9838 87.6409 17.4285C87.2572 16.863 86.7725 16.4187 86.1869 16.0956C85.6113 15.7724 84.9348 15.6109 84.1572 15.6109C83.3898 15.6109 82.7133 15.7724 82.1276 16.0956C81.5521 16.4187 81.0674 16.863 80.6736 17.4285C80.2898 17.9838 80.0021 18.625 79.8102 19.3521C79.6184 20.069 79.5224 20.8314 79.5224 21.6392ZM94.4114 21.9875V21.6392C94.4114 20.4577 94.583 19.3621 94.9264 18.3524C95.2697 17.3325 95.7645 16.449 96.4107 15.7018C97.057 14.9444 97.8395 14.3588 98.7584 13.9448C99.6773 13.5207 100.707 13.3086 101.848 13.3086C102.999 13.3086 104.034 13.5207 104.953 13.9448C105.882 14.3588 106.67 14.9444 107.316 15.7018C107.972 16.449 108.472 17.3325 108.816 18.3524C109.159 19.3621 109.331 20.4577 109.331 21.6392V21.9875C109.331 23.169 109.159 24.2645 108.816 25.2743C108.472 26.2841 107.972 27.1676 107.316 27.9249C106.67 28.6722 105.887 29.2578 104.968 29.6819C104.06 30.0959 103.03 30.3029 101.879 30.3029C100.727 30.3029 99.6924 30.0959 98.7736 29.6819C97.8547 29.2578 97.0671 28.6722 96.4107 27.9249C95.7645 27.1676 95.2697 26.2841 94.9264 25.2743C94.583 24.2645 94.4114 23.169 94.4114 21.9875ZM97.2135 21.6392V21.9875C97.2135 22.8054 97.3094 23.5779 97.5013 24.3049C97.6931 25.0219 97.9809 25.658 98.3646 26.2134C98.7584 26.7688 99.2481 27.208 99.8338 27.5311C100.419 27.8442 101.101 28.0007 101.879 28.0007C102.646 28.0007 103.317 27.8442 103.893 27.5311C104.479 27.208 104.963 26.7688 105.347 26.2134C105.731 25.658 106.019 25.0219 106.21 24.3049C106.412 23.5779 106.513 22.8054 106.513 21.9875V21.6392C106.513 20.8314 106.412 20.069 106.21 19.3521C106.019 18.625 105.726 17.9838 105.332 17.4285C104.948 16.863 104.464 16.4187 103.878 16.0956C103.302 15.7724 102.626 15.6109 101.848 15.6109C101.081 15.6109 100.404 15.7724 99.8187 16.0956C99.2431 16.4187 98.7584 16.863 98.3646 17.4285C97.9809 17.9838 97.6931 18.625 97.5013 19.3521C97.3094 20.069 97.2135 20.8314 97.2135 21.6392ZM115.632 16.868V30H112.814V13.6115H115.48L115.632 16.868ZM115.056 21.1848L113.753 21.1393C113.763 20.0185 113.91 18.9835 114.193 18.0343C114.475 17.075 114.894 16.242 115.45 15.5351C116.005 14.8283 116.697 14.283 117.525 13.8993C118.353 13.5055 119.312 13.3086 120.403 13.3086C121.17 13.3086 121.877 13.4197 122.523 13.6418C123.169 13.8539 123.73 14.1922 124.204 14.6567C124.679 15.1211 125.048 15.7169 125.31 16.4439C125.573 17.171 125.704 18.0495 125.704 19.0794V30H122.902V19.2157C122.902 18.3574 122.755 17.6708 122.463 17.1558C122.18 16.6408 121.776 16.2672 121.251 16.035C120.726 15.7926 120.11 15.6715 119.403 15.6715C118.575 15.6715 117.883 15.8179 117.328 16.1107C116.773 16.4035 116.328 16.8074 115.995 17.3224C115.662 17.8374 115.419 18.4281 115.268 19.0946C115.127 19.7509 115.056 20.4476 115.056 21.1848ZM125.674 19.6398L123.795 20.2154C123.806 19.3167 123.952 18.4534 124.235 17.6254C124.528 16.7973 124.947 16.0602 125.492 15.414C126.047 14.7677 126.729 14.2578 127.537 13.8842C128.344 13.5005 129.268 13.3086 130.308 13.3086C131.187 13.3086 131.964 13.4247 132.641 13.657C133.328 13.8892 133.903 14.2477 134.368 14.7324C134.842 15.207 135.201 15.8179 135.443 16.5651C135.685 17.3123 135.807 18.2009 135.807 19.2309V30H132.989V19.2006C132.989 18.2817 132.843 17.5698 132.55 17.0649C132.267 16.55 131.863 16.1915 131.338 15.9895C130.823 15.7775 130.207 15.6715 129.491 15.6715C128.875 15.6715 128.329 15.7775 127.855 15.9895C127.38 16.2016 126.981 16.4944 126.658 16.868C126.335 17.2315 126.088 17.6506 125.916 18.1252C125.754 18.5998 125.674 19.1047 125.674 19.6398Z" fill="#999999"/>
<path d="M18.1831 17.6552C25.9889 12.7792 36.5204 16.3907 32.1166 24.9237C27.7128 33.4516 -12.5521 17.6451 3.9495 25.5003C20.4511 33.3555 26.8127 49.3543 33.5659 34.2306C40.3191 19.1069 48.4555 -13.6189 25.5719 6.26952C2.68837 26.1579 8.43977 23.7351 18.1831 17.6552Z" fill="#999999"/>
</svg>
